HIERARCHY
ROOT Head
{
	OFFSET 0.00000 0.00000 0.00000
	CHANNELS 6 Xposition Yposition Zposition Zrotation Yrotation Xrotation 
	End Site
	{
		OFFSET 0.07217 1.51590 -0.14537
	}
}
MOTION
Frames: 145
Frame Time: .0083333
0.000000 0.000000 0.000000 0.000000 0.000000 0.000000
0.000000 0.000000 0.000000 0.000000 0.000000 0.600000
0.000000 0.000000 0.000000 0.000000 0.000000 1.200000
0.000000 0.000000 0.000000 0.000000 0.000000 1.800000
0.000000 0.000000 0.000000 0.000000 0.000000 2.400000
0.000000 0.000000 0.000000 0.000000 0.000000 3.000000
0.000000 0.000000 0.000000 0.000000 0.000000 3.600000
0.000000 0.000000 0.000000 0.000000 0.000000 4.200000
0.000000 0.000000 0.000000 0.000000 0.000000 4.800000
0.000000 0.000000 0.000000 0.000000 0.000000 5.400000
0.000000 0.000000 0.000000 0.000000 0.000000 6.000000
0.000000 0.000000 0.000000 0.000000 0.000000 6.600000
0.000000 0.000000 0.000000 0.000000 0.000000 7.200000
0.000000 0.000000 0.000000 0.000000 0.000000 7.800000
0.000000 0.000000 0.000000 0.000000 0.000000 8.400000
0.000000 0.000000 0.000000 0.000000 0.000000 9.000000
0.000000 0.000000 0.000000 0.000000 0.000000 9.600000
0.000000 0.000000 0.000000 0.000000 0.000000 10.200000
0.000000 0.000000 0.000000 0.000000 0.000000 10.800000
0.000000 0.000000 0.000000 0.000000 0.000000 11.400000
0.000000 0.000000 0.000000 0.000000 0.000000 12.000000
0.000000 0.000000 0.000000 0.000000 0.000000 12.600000
0.000000 0.000000 0.000000 0.000000 0.000000 13.200000
0.000000 0.000000 0.000000 0.000000 0.000000 13.800000
0.000000 0.000000 0.000000 0.000000 0.000000 14.400000
0.000000 0.000000 0.000000 0.000000 0.000000 15.000000
0.000000 0.000000 0.000000 0.000000 0.000000 15.600000
0.000000 0.000000 0.000000 0.000000 0.000000 16.200000
0.000000 0.000000 0.000000 0.000000 0.000000 16.800000
0.000000 0.000000 0.000000 0.000000 0.000000 17.400000
0.000000 0.000000 0.000000 0.000000 0.000000 18.000000
0.000000 0.000000 0.000000 0.000000 0.000000 18.600000
0.000000 0.000000 0.000000 0.000000 0.000000 19.200000
0.000000 0.000000 0.000000 0.000000 0.000000 19.800000
0.000000 0.000000 0.000000 0.000000 0.000000 20.400000
0.000000 0.000000 0.000000 0.000000 0.000000 21.000000
0.000000 0.000000 0.000000 0.000000 0.000000 21.600000
0.000000 0.000000 0.000000 0.000000 0.000000 22.200000
0.000000 0.000000 0.000000 0.000000 0.000000 22.800000
0.000000 0.000000 0.000000 0.000000 0.000000 23.400000
0.000000 0.000000 0.000000 0.000000 0.000000 24.000000
0.000000 0.000000 0.000000 0.000000 0.000000 24.600000
0.000000 0.000000 0.000000 0.000000 0.000000 25.200000
0.000000 0.000000 0.000000 0.000000 0.000000 25.800000
0.000000 0.000000 0.000000 0.000000 0.000000 26.400000
0.000000 0.000000 0.000000 0.000000 0.000000 27.000000
0.000000 0.000000 0.000000 0.000000 0.000000 27.600000
0.000000 0.000000 0.000000 0.000000 0.000000 28.200000
0.000000 0.000000 0.000000 0.000000 0.000000 28.800000
0.000000 0.000000 0.000000 0.000000 0.000000 29.400000
0.000000 0.000000 0.000000 0.000000 0.000000 29.400000
0.000000 0.000000 0.000000 0.000000 0.000000 29.400000
0.000000 0.000000 0.000000 0.000000 0.000000 29.400000
0.000000 0.000000 0.000000 0.000000 0.000000 29.400000
0.000000 0.000000 0.000000 0.000000 0.000000 29.400000
0.000000 0.000000 0.000000 0.000000 0.000000 29.400000
0.000000 0.000000 0.000000 0.000000 0.000000 29.400000
0.000000 0.000000 0.000000 0.000000 0.000000 29.400000
0.000000 0.000000 0.000000 0.000000 0.000000 29.400000
0.000000 0.000000 0.000000 0.000000 0.000000 29.400000
0.000000 0.000000 0.000000 0.000000 0.000000 29.400000
0.000000 0.000000 0.000000 0.000000 0.000000 29.400000
0.000000 0.000000 0.000000 0.000000 0.000000 29.400000
0.000000 0.000000 0.000000 0.000000 0.000000 29.400000
0.000000 0.000000 0.000000 0.000000 0.000000 29.400000
0.000000 0.000000 0.000000 0.000000 0.000000 29.400000
0.000000 0.000000 0.000000 0.000000 0.000000 29.400000
0.000000 0.000000 0.000000 0.000000 0.000000 29.400000
0.000000 0.000000 0.000000 0.000000 0.000000 29.400000
0.000000 0.000000 0.000000 0.000000 0.000000 29.400000
0.000000 0.000000 0.000000 0.000000 0.000000 29.400000
0.000000 0.000000 0.000000 0.000000 0.000000 29.400000
0.000000 0.000000 0.000000 0.000000 0.000000 29.400000
0.000000 0.000000 0.000000 0.000000 0.000000 29.400000
0.000000 0.000000 0.000000 0.000000 0.000000 29.400000
0.000000 0.000000 0.000000 0.000000 0.000000 29.400000
0.000000 0.000000 0.000000 0.000000 0.000000 29.400000
0.000000 0.000000 0.000000 0.000000 0.000000 29.400000
0.000000 0.000000 0.000000 0.000000 0.000000 29.400000
0.000000 0.000000 0.000000 0.000000 0.000000 29.400000
0.000000 0.000000 0.000000 0.000000 0.000000 29.400000
0.000000 0.000000 0.000000 0.000000 0.000000 29.400000
0.000000 0.000000 0.000000 0.000000 0.000000 29.400000
0.000000 0.000000 0.000000 0.000000 0.000000 29.400000
0.000000 0.000000 0.000000 0.000000 0.000000 29.400000
0.000000 0.000000 0.000000 0.000000 0.000000 29.400000
0.000000 0.000000 0.000000 0.000000 0.000000 29.400000
0.000000 0.000000 0.000000 0.000000 0.000000 29.400000
0.000000 0.000000 0.000000 0.000000 0.000000 29.400000
0.000000 0.000000 0.000000 0.000000 0.000000 29.400000
0.000000 0.000000 0.000000 0.000000 0.000000 29.400000
0.000000 0.000000 0.000000 0.000000 0.000000 29.400000
0.000000 0.000000 0.000000 0.000000 0.000000 29.400000
0.000000 0.000000 0.000000 0.000000 0.000000 29.400000
0.000000 0.000000 0.000000 0.000000 0.000000 29.400000
0.000000 0.000000 0.000000 0.000000 0.000000 29.400000
0.000000 0.000000 0.000000 0.000000 0.000000 29.400000
0.000000 0.000000 0.000000 0.000000 0.000000 29.400000
0.000000 0.000000 0.000000 0.000000 0.000000 29.400000
0.000000 0.000000 0.000000 0.000000 0.000000 29.400000
0.000000 0.000000 0.000000 0.000000 0.000000 29.400000
0.000000 0.000000 0.000000 0.000000 0.000000 29.400000
0.000000 0.000000 0.000000 0.000000 0.000000 29.400000
0.000000 0.000000 0.000000 0.000000 0.000000 29.400000
0.000000 0.000000 0.000000 0.000000 0.000000 29.400000
0.000000 0.000000 0.000000 0.000000 0.000000 29.400000
0.000000 0.000000 0.000000 0.000000 0.000000 29.400000
0.000000 0.000000 0.000000 0.000000 0.000000 29.400000
0.000000 0.000000 0.000000 0.000000 0.000000 29.400000
0.000000 0.000000 0.000000 0.000000 0.000000 29.400000
0.000000 0.000000 0.000000 0.000000 0.000000 29.400000
0.000000 0.000000 0.000000 0.000000 0.000000 29.400000
0.000000 0.000000 0.000000 0.000000 0.000000 29.400000
0.000000 0.000000 0.000000 0.000000 0.000000 29.400000
0.000000 0.000000 0.000000 0.000000 0.000000 29.400000
0.000000 0.000000 0.000000 0.000000 0.000000 29.400000
0.000000 0.000000 0.000000 0.000000 0.000000 29.400000
0.000000 0.000000 0.000000 0.000000 0.000000 29.400000
0.000000 0.000000 0.000000 0.000000 0.000000 29.400000
0.000000 0.000000 0.000000 0.000000 0.000000 29.400000
0.000000 0.000000 0.000000 0.000000 0.000000 29.400000
0.000000 0.000000 0.000000 0.000000 0.000000 29.400000
0.000000 0.000000 0.000000 0.000000 0.000000 29.400000
0.000000 0.000000 0.000000 0.000000 0.000000 29.400000
0.000000 0.000000 0.000000 0.000000 0.000000 29.400000
0.000000 0.000000 0.000000 0.000000 0.000000 29.400000
0.000000 0.000000 0.000000 0.000000 0.000000 29.400000
0.000000 0.000000 0.000000 0.000000 0.000000 29.400000
0.000000 0.000000 0.000000 0.000000 0.000000 29.400000
0.000000 0.000000 0.000000 0.000000 0.000000 29.400000
0.000000 0.000000 0.000000 0.000000 0.000000 29.400000
0.000000 0.000000 0.000000 0.000000 0.000000 29.400000
0.000000 0.000000 0.000000 0.000000 0.000000 29.400000
0.000000 0.000000 0.000000 0.000000 0.000000 29.400000
0.000000 0.000000 0.000000 0.000000 0.000000 29.400000
0.000000 0.000000 0.000000 0.000000 0.000000 29.400000
0.000000 0.000000 0.000000 0.000000 0.000000 29.400000
0.000000 0.000000 0.000000 0.000000 0.000000 29.400000
0.000000 0.000000 0.000000 0.000000 0.000000 29.400000
0.000000 0.000000 0.000000 0.000000 0.000000 29.400000
0.000000 0.000000 0.000000 0.000000 0.000000 29.400000
0.000000 0.000000 0.000000 0.000000 0.000000 29.400000
0.000000 0.000000 0.000000 0.000000 0.000000 29.400000
0.000000 0.000000 0.000000 0.000000 0.000000 29.400000
0.000000 0.000000 0.000000 0.000000 0.000000 29.400000
